<?xml version="1.0" encoding="us-ascii" standalone="no"?><svg xmlns="http://www.w3.org/2000/svg" xmlns:xlink="http://www.w3.org/1999/xlink" contentStyleType="text/css" height="2559px" preserveAspectRatio="none" style="width:1722px;height:2559px;background:#FFFFFF;" version="1.1" viewBox="0 0 1722 2559" width="1722px" zoomAndPan="magnify"><defs/><g><text fill="#000000" font-family="sans-serif" font-size="14" font-weight="bold" lengthAdjust="spacing" textLength="365" x="674.75" y="29.9659">ServiceResolver: DID Resolution &amp; Response Building</text><text fill="#808080" font-family="sans-serif" font-size="11" font-weight="bold" lengthAdjust="spacing" textLength="453" x="630.75" y="45.8268">Entry points: SovdDiagHandler.handle_read_did() / handle_write_did() (proxy-sovd)</text><rect fill="#FFFFFF" height="749.0841" style="stroke:#181818;stroke-width:1.0;" width="10" x="341.5" y="237.5977"/><rect fill="#FFFFFF" height="653.9661" style="stroke:#181818;stroke-width:1.0;" width="10" x="346.5" y="277.3037"/><rect fill="#FFFFFF" height="86.118" style="stroke:#181818;stroke-width:1.0;" width="10" x="351.5" y="385.4217"/><rect fill="#FFFFFF" height="386.3179" style="stroke:#181818;stroke-width:1.0;" width="10" x="351.5" y="537.9518"/><rect fill="#FFFFFF" height="106.118" style="stroke:#181818;stroke-width:1.0;" width="10" x="356.5" y="734.4638"/><rect fill="#FFFFFF" height="390.7481" style="stroke:#181818;stroke-width:1.0;" width="10" x="705.5" y="1291.0359"/><rect fill="#FFFFFF" height="868.2022" style="stroke:#181818;stroke-width:1.0;" width="10" x="1129.5" y="1214.6239"/><rect fill="#FFFFFF" height="546.5721" style="stroke:#181818;stroke-width:1.0;" width="10" x="1134.5" y="1254.3299"/><rect fill="#FFFFFF" height="71.412" style="stroke:#181818;stroke-width:1.0;" width="10" x="1134.5" y="1969.708"/><rect fill="#FFFFFF" height="31.706" style="stroke:#181818;stroke-width:1.0;" width="10" x="1527.5" y="314.0097"/><rect fill="#FFFFFF" height="31.706" style="stroke:#181818;stroke-width:1.0;" width="10" x="1527.5" y="439.8338"/><rect fill="#FFFFFF" height="31.706" style="stroke:#181818;stroke-width:1.0;" width="10" x="1527.5" y="574.6578"/><rect fill="#FFFFFF" height="31.706" style="stroke:#181818;stroke-width:1.0;" width="10" x="1527.5" y="771.1698"/><rect fill="#FFFFFF" height="31.706" style="stroke:#181818;stroke-width:1.0;" width="10" x="1527.5" y="954.9758"/><rect fill="#FFFFFF" height="31.706" style="stroke:#181818;stroke-width:1.0;" width="10" x="1527.5" y="1322.7419"/><rect fill="#FFFFFF" height="31.706" style="stroke:#181818;stroke-width:1.0;" width="10" x="1527.5" y="1412.86"/><rect fill="#FFFFFF" height="31.706" style="stroke:#181818;stroke-width:1.0;" width="10" x="1527.5" y="1502.978"/><rect fill="#FFFFFF" height="34.706" style="stroke:#181818;stroke-width:1.0;" width="10" x="1527.5" y="2006.414"/><rect fill="none" height="437.73" style="stroke:#000000;stroke-width:1.5;" width="1338.5" x="279.5" y="486.5398"/><rect fill="none" height="295.9059" style="stroke:#000000;stroke-width:1.5;" width="1318.5" x="289.5" y="621.3639"/><rect fill="none" height="305.336" style="stroke:#000000;stroke-width:1.5;" width="994.5" x="623.5" y="1369.448"/><rect fill="none" height="127.8241" style="stroke:#000000;stroke-width:1.5;" width="974.5" x="633.5" y="1459.566"/><rect fill="none" height="81.3939" style="stroke:#000000;stroke-width:1.5;" width="367" x="1057.5" y="1822.902"/><rect fill="none" height="133.8241" style="stroke:#000000;stroke-width:1.5;" width="648" x="1057.5" y="1918.296"/><line style="stroke:#181818;stroke-width:0.5;stroke-dasharray:5.0,5.0;" x1="66" x2="66" y1="158.1856" y2="2457.2404"/><line style="stroke:#181818;stroke-width:0.5;stroke-dasharray:5.0,5.0;" x1="197" x2="197" y1="158.1856" y2="2457.2404"/><line style="stroke:#181818;stroke-width:0.5;stroke-dasharray:5.0,5.0;" x1="346.5" x2="346.5" y1="158.1856" y2="2457.2404"/><line style="stroke:#181818;stroke-width:0.5;stroke-dasharray:5.0,5.0;" x1="710.5" x2="710.5" y1="158.1856" y2="2457.2404"/><line style="stroke:#181818;stroke-width:0.5;stroke-dasharray:5.0,5.0;" x1="1134.5" x2="1134.5" y1="158.1856" y2="2457.2404"/><line style="stroke:#181818;stroke-width:0.5;stroke-dasharray:5.0,5.0;" x1="1532" x2="1532" y1="158.1856" y2="2457.2404"/><text fill="#000000" font-family="sans-serif" font-size="14" lengthAdjust="spacing" textLength="117" x="5" y="135.0157">SovdDiagHandler</text><text fill="#000000" font-family="sans-serif" font-size="14" lengthAdjust="spacing" textLength="81" x="23" y="154.0837">(proxy-sovd)</text><ellipse cx="66.5" cy="68.5498" fill="#E2E2F0" rx="8" ry="8" style="stroke:#181818;stroke-width:0.5;"/><path d="M66.5,76.5498 L66.5,103.5498 M53.5,84.5498 L79.5,84.5498 M66.5,103.5498 L53.5,118.5498 M66.5,103.5498 L79.5,118.5498 " fill="none" style="stroke:#181818;stroke-width:0.5;"/><text fill="#000000" font-family="sans-serif" font-size="14" lengthAdjust="spacing" textLength="117" x="5" y="2471.2063">SovdDiagHandler</text><text fill="#000000" font-family="sans-serif" font-size="14" lengthAdjust="spacing" textLength="81" x="23" y="2490.2742">(proxy-sovd)</text><ellipse cx="66.5" cy="2502.8762" fill="#E2E2F0" rx="8" ry="8" style="stroke:#181818;stroke-width:0.5;"/><path d="M66.5,2510.8762 L66.5,2537.8762 M53.5,2518.8762 L79.5,2518.8762 M66.5,2537.8762 L53.5,2552.8762 M66.5,2537.8762 L79.5,2552.8762 " fill="none" style="stroke:#181818;stroke-width:0.5;"/><rect fill="#E2E2F0" height="52.1358" rx="2.5" ry="2.5" style="stroke:#181818;stroke-width:0.5;" width="119" x="138" y="105.0498"/><text fill="#000000" font-family="sans-serif" font-size="14" lengthAdjust="spacing" textLength="105" x="145" y="127.0157">ServiceResolver</text><text fill="#000000" font-family="sans-serif" font-size="14" lengthAdjust="spacing" textLength="104" x="145.5" y="146.0837">(mod.rs facade)</text><rect fill="#E2E2F0" height="52.1358" rx="2.5" ry="2.5" style="stroke:#181818;stroke-width:0.5;" width="119" x="138" y="2456.2404"/><text fill="#000000" font-family="sans-serif" font-size="14" lengthAdjust="spacing" textLength="105" x="145" y="2478.2063">ServiceResolver</text><text fill="#000000" font-family="sans-serif" font-size="14" lengthAdjust="spacing" textLength="104" x="145.5" y="2497.2742">(mod.rs facade)</text><rect fill="#E2E2F0" height="52.1358" rx="2.5" ry="2.5" style="stroke:#181818;stroke-width:0.5;" width="94" x="299.5" y="105.0498"/><text fill="#000000" font-family="sans-serif" font-size="14" lengthAdjust="spacing" textLength="80" x="306.5" y="127.0157">DidResolver</text><text fill="#000000" font-family="sans-serif" font-size="14" lengthAdjust="spacing" textLength="73" x="310" y="146.0837">(resolve.rs)</text><rect fill="#E2E2F0" height="52.1358" rx="2.5" ry="2.5" style="stroke:#181818;stroke-width:0.5;" width="94" x="299.5" y="2456.2404"/><text fill="#000000" font-family="sans-serif" font-size="14" lengthAdjust="spacing" textLength="80" x="306.5" y="2478.2063">DidResolver</text><text fill="#000000" font-family="sans-serif" font-size="14" lengthAdjust="spacing" textLength="73" x="310" y="2497.2742">(resolve.rs)</text><rect fill="#E2E2F0" height="52.1358" rx="2.5" ry="2.5" style="stroke:#181818;stroke-width:0.5;" width="134" x="643.5" y="105.0498"/><text fill="#000000" font-family="sans-serif" font-size="14" lengthAdjust="spacing" textLength="120" x="650.5" y="127.0157">MetadataProvider</text><text fill="#000000" font-family="sans-serif" font-size="14" lengthAdjust="spacing" textLength="89" x="666" y="146.0837">(metadata.rs)</text><rect fill="#E2E2F0" height="52.1358" rx="2.5" ry="2.5" style="stroke:#181818;stroke-width:0.5;" width="134" x="643.5" y="2456.2404"/><text fill="#000000" font-family="sans-serif" font-size="14" lengthAdjust="spacing" textLength="120" x="650.5" y="2478.2063">MetadataProvider</text><text fill="#000000" font-family="sans-serif" font-size="14" lengthAdjust="spacing" textLength="89" x="666" y="2497.2742">(metadata.rs)</text><rect fill="#E2E2F0" height="52.1358" rx="2.5" ry="2.5" style="stroke:#181818;stroke-width:0.5;" width="134" x="1067.5" y="105.0498"/><text fill="#000000" font-family="sans-serif" font-size="14" lengthAdjust="spacing" textLength="120" x="1074.5" y="127.0157">ResponseEncoder</text><text fill="#000000" font-family="sans-serif" font-size="14" lengthAdjust="spacing" textLength="87" x="1091" y="146.0837">(response.rs)</text><rect fill="#E2E2F0" height="52.1358" rx="2.5" ry="2.5" style="stroke:#181818;stroke-width:0.5;" width="134" x="1067.5" y="2456.2404"/><text fill="#000000" font-family="sans-serif" font-size="14" lengthAdjust="spacing" textLength="120" x="1074.5" y="2478.2063">ResponseEncoder</text><text fill="#000000" font-family="sans-serif" font-size="14" lengthAdjust="spacing" textLength="87" x="1091" y="2497.2742">(response.rs)</text><rect fill="#E2E2F0" height="33.0679" rx="2.5" ry="2.5" style="stroke:#181818;stroke-width:0.5;" width="131" x="1467" y="124.1177"/><text fill="#000000" font-family="sans-serif" font-size="14" lengthAdjust="spacing" textLength="117" x="1474" y="146.0837">CDA EcuManager</text><rect fill="#E2E2F0" height="33.0679" rx="2.5" ry="2.5" style="stroke:#181818;stroke-width:0.5;" width="131" x="1467" y="2456.2404"/><text fill="#000000" font-family="sans-serif" font-size="14" lengthAdjust="spacing" textLength="117" x="1474" y="2478.2063">CDA EcuManager</text><rect fill="#FFFFFF" height="749.0841" style="stroke:#181818;stroke-width:1.0;" width="10" x="341.5" y="237.5977"/><rect fill="#FFFFFF" height="653.9661" style="stroke:#181818;stroke-width:1.0;" width="10" x="346.5" y="277.3037"/><rect fill="#FFFFFF" height="86.118" style="stroke:#181818;stroke-width:1.0;" width="10" x="351.5" y="385.4217"/><rect fill="#FFFFFF" height="386.3179" style="stroke:#181818;stroke-width:1.0;" width="10" x="351.5" y="537.9518"/><rect fill="#FFFFFF" height="106.118" style="stroke:#181818;stroke-width:1.0;" width="10" x="356.5" y="734.4638"/><rect fill="#FFFFFF" height="390.7481" style="stroke:#181818;stroke-width:1.0;" width="10" x="705.5" y="1291.0359"/><rect fill="#FFFFFF" height="868.2022" style="stroke:#181818;stroke-width:1.0;" width="10" x="1129.5" y="1214.6239"/><rect fill="#FFFFFF" height="546.5721" style="stroke:#181818;stroke-width:1.0;" width="10" x="1134.5" y="1254.3299"/><rect fill="#FFFFFF" height="71.412" style="stroke:#181818;stroke-width:1.0;" width="10" x="1134.5" y="1969.708"/><rect fill="#FFFFFF" height="31.706" style="stroke:#181818;stroke-width:1.0;" width="10" x="1527.5" y="314.0097"/><rect fill="#FFFFFF" height="31.706" style="stroke:#181818;stroke-width:1.0;" width="10" x="1527.5" y="439.8338"/><rect fill="#FFFFFF" height="31.706" style="stroke:#181818;stroke-width:1.0;" width="10" x="1527.5" y="574.6578"/><rect fill="#FFFFFF" height="31.706" style="stroke:#181818;stroke-width:1.0;" width="10" x="1527.5" y="771.1698"/><rect fill="#FFFFFF" height="31.706" style="stroke:#181818;stroke-width:1.0;" width="10" x="1527.5" y="954.9758"/><rect fill="#FFFFFF" height="31.706" style="stroke:#181818;stroke-width:1.0;" width="10" x="1527.5" y="1322.7419"/><rect fill="#FFFFFF" height="31.706" style="stroke:#181818;stroke-width:1.0;" width="10" x="1527.5" y="1412.86"/><rect fill="#FFFFFF" height="31.706" style="stroke:#181818;stroke-width:1.0;" width="10" x="1527.5" y="1502.978"/><rect fill="#FFFFFF" height="34.706" style="stroke:#181818;stroke-width:1.0;" width="10" x="1527.5" y="2006.414"/><rect fill="#EEEEEE" height="3" style="stroke:#EEEEEE;stroke-width:1.0;" width="1715.5" x="0" y="190.0386"/><line style="stroke:#000000;stroke-width:1.0;" x1="0" x2="1715.5" y1="190.0386" y2="190.0386"/><line style="stroke:#000000;stroke-width:1.0;" x1="0" x2="1715.5" y1="193.0386" y2="193.0386"/><rect fill="#EEEEEE" height="25.706" style="stroke:#000000;stroke-width:2.0;" width="176" x="769.75" y="178.1856"/><text fill="#000000" font-family="sans-serif" font-size="13" font-weight="bold" lengthAdjust="spacing" textLength="159" x="775.75" y="196.0827">READ Service Resolution</text><polygon fill="#181818" points="329.5,233.5977,339.5,237.5977,329.5,241.5977,333.5,237.5977" style="stroke:#181818;stroke-width:1.0;"/><line style="stroke:#181818;stroke-width:1.0;" x1="66.5" x2="335.5" y1="237.5977" y2="237.5977"/><text fill="#000000" font-family="sans-serif" font-size="13" lengthAdjust="spacing" textLength="250" x="73.5" y="231.7887">resolve(ServiceType::Read, did, uds_bytes)</text><line style="stroke:#181818;stroke-width:1.0;" x1="351.5" x2="398.5" y1="264.3037" y2="264.3037"/><line style="stroke:#181818;stroke-width:1.0;" x1="398.5" x2="398.5" y1="264.3037" y2="277.3037"/><line style="stroke:#181818;stroke-width:1.0;" x1="357.5" x2="398.5" y1="277.3037" y2="277.3037"/><polygon fill="#181818" points="367.5,273.3037,357.5,277.3037,367.5,281.3037,363.5,277.3037" style="stroke:#181818;stroke-width:1.0;"/><text fill="#000000" font-family="sans-serif" font-size="13" lengthAdjust="spacing" textLength="283" x="363.5" y="258.4947">resolve_service_did(sid=0x22, did, label="READ")</text><polygon fill="#181818" points="1515.5,310.0097,1525.5,314.0097,1515.5,318.0097,1519.5,314.0097" style="stroke:#181818;stroke-width:1.0;"/><line style="stroke:#181818;stroke-width:1.0;" x1="356.5" x2="1521.5" y1="314.0097" y2="314.0097"/><text fill="#000000" font-family="sans-serif" font-size="13" lengthAdjust="spacing" textLength="374" x="363.5" y="308.2007">lookup_diagcomms_by_request_prefix([0x22, DID_HI, DID_LO])</text><polygon fill="#181818" points="367.5,341.7157,357.5,345.7157,367.5,349.7157,363.5,345.7157" style="stroke:#181818;stroke-width:1.0;"/><line style="stroke:#181818;stroke-width:1.0;stroke-dasharray:2.0,2.0;" x1="361.5" x2="1531.5" y1="345.7157" y2="345.7157"/><text fill="#000000" font-family="sans-serif" font-size="13" lengthAdjust="spacing" textLength="110" x="373.5" y="339.9067">matching_services</text><line style="stroke:#181818;stroke-width:1.0;" x1="356.5" x2="403.5" y1="372.4217" y2="372.4217"/><line style="stroke:#181818;stroke-width:1.0;" x1="403.5" x2="403.5" y1="372.4217" y2="385.4217"/><line style="stroke:#181818;stroke-width:1.0;" x1="362.5" x2="403.5" y1="385.4217" y2="385.4217"/><polygon fill="#181818" points="372.5,381.4217,362.5,385.4217,372.5,389.4217,368.5,385.4217" style="stroke:#181818;stroke-width:1.0;"/><text fill="#000000" font-family="sans-serif" font-size="13" lengthAdjust="spacing" textLength="335" x="368.5" y="366.6127">build_did_candidates(manager, did_prefix, sid, did, label)</text><polygon fill="#181818" points="1515.5,435.8338,1525.5,439.8338,1515.5,443.8338,1519.5,439.8338" style="stroke:#181818;stroke-width:1.0;"/><line style="stroke:#181818;stroke-width:1.0;" x1="361.5" x2="1521.5" y1="439.8338" y2="439.8338"/><text fill="#000000" font-family="sans-serif" font-size="13" lengthAdjust="spacing" textLength="188" x="368.5" y="416.3188">get_components_data_info() or</text><text fill="#000000" font-family="sans-serif" font-size="13" lengthAdjust="spacing" textLength="232" x="368.5" y="434.0248">get_components_configurations_info()</text><polygon fill="#181818" points="367.5,467.5398,357.5,471.5398,367.5,475.5398,363.5,471.5398" style="stroke:#181818;stroke-width:1.0;"/><line style="stroke:#181818;stroke-width:1.0;stroke-dasharray:2.0,2.0;" x1="361.5" x2="1531.5" y1="471.5398" y2="471.5398"/><text fill="#000000" font-family="sans-serif" font-size="13" lengthAdjust="spacing" textLength="184" x="373.5" y="465.7308">all SID-matching service names</text><path d="M279.5,486.5398 L352.5,486.5398 L352.5,496.2458 L342.5,506.2458 L279.5,506.2458 L279.5,486.5398 " fill="#EEEEEE" style="stroke:#000000;stroke-width:1.5;"/><rect fill="none" height="437.73" style="stroke:#000000;stroke-width:1.5;" width="1338.5" x="279.5" y="486.5398"/><text fill="#000000" font-family="sans-serif" font-size="13" font-weight="bold" lengthAdjust="spacing" textLength="28" x="294.5" y="501.4368">loop</text><text fill="#000000" font-family="sans-serif" font-size="11" font-weight="bold" lengthAdjust="spacing" textLength="190" x="367.5" y="500.2987">[for each candidate service name]</text><line style="stroke:#181818;stroke-width:1.0;" x1="356.5" x2="403.5" y1="524.9518" y2="524.9518"/><line style="stroke:#181818;stroke-width:1.0;" x1="403.5" x2="403.5" y1="524.9518" y2="537.9518"/><line style="stroke:#181818;stroke-width:1.0;" x1="362.5" x2="403.5" y1="537.9518" y2="537.9518"/><polygon fill="#181818" points="372.5,533.9518,362.5,537.9518,372.5,541.9518,368.5,537.9518" style="stroke:#181818;stroke-width:1.0;"/><text fill="#000000" font-family="sans-serif" font-size="13" lengthAdjust="spacing" textLength="278" x="368.5" y="519.1428">match_candidate_did(manager, name, sid, did)</text><polygon fill="#181818" points="1515.5,570.6578,1525.5,574.6578,1515.5,578.6578,1519.5,574.6578" style="stroke:#181818;stroke-width:1.0;"/><line style="stroke:#181818;stroke-width:1.0;" x1="361.5" x2="1521.5" y1="574.6578" y2="574.6578"/><text fill="#000000" font-family="sans-serif" font-size="13" lengthAdjust="spacing" textLength="312" x="368.5" y="568.8488">get_request_parameter_metadata(candidate_name)</text><polygon fill="#181818" points="372.5,602.3639,362.5,606.3639,372.5,610.3639,368.5,606.3639" style="stroke:#181818;stroke-width:1.0;"/><line style="stroke:#181818;stroke-width:1.0;stroke-dasharray:2.0,2.0;" x1="366.5" x2="1531.5" y1="606.3639" y2="606.3639"/><text fill="#000000" font-family="sans-serif" font-size="13" lengthAdjust="spacing" textLength="100" x="378.5" y="600.5549">param metadata</text><path d="M289.5,621.3639 L352.5,621.3639 L352.5,631.0699 L342.5,641.0699 L289.5,641.0699 L289.5,621.3639 " fill="#EEEEEE" style="stroke:#000000;stroke-width:1.5;"/><rect fill="none" height="295.9059" style="stroke:#000000;stroke-width:1.5;" width="1318.5" x="289.5" y="621.3639"/><text fill="#000000" font-family="sans-serif" font-size="13" font-weight="bold" lengthAdjust="spacing" textLength="18" x="304.5" y="636.2609">alt</text><text fill="#000000" font-family="sans-serif" font-size="11" font-weight="bold" lengthAdjust="spacing" textLength="97" x="367.5" y="635.1228">[CodedConst DID]</text><line style="stroke:#181818;stroke-width:1.0;" x1="361.5" x2="403.5" y1="664.7759" y2="664.7759"/><line style="stroke:#181818;stroke-width:1.0;" x1="403.5" x2="403.5" y1="664.7759" y2="677.7759"/><line style="stroke:#181818;stroke-width:1.0;" x1="362.5" x2="403.5" y1="677.7759" y2="677.7759"/><polygon fill="#181818" points="372.5,673.7759,362.5,677.7759,372.5,681.7759,368.5,677.7759" style="stroke:#181818;stroke-width:1.0;"/><text fill="#000000" font-family="sans-serif" font-size="13" lengthAdjust="spacing" textLength="183" x="368.5" y="658.9669">parse_u64_literal(coded_value)</text><line style="stroke:#000000;stroke-width:1.0;stroke-dasharray:2.0,2.0;" x1="289.5" x2="1608" y1="686.7759" y2="686.7759"/><text fill="#000000" font-family="sans-serif" font-size="11" font-weight="bold" lengthAdjust="spacing" textLength="208" x="294.5" y="698.5348">[PhysConst DID (coded_value absent)]</text><line style="stroke:#181818;stroke-width:1.0;" x1="361.5" x2="408.5" y1="721.4638" y2="721.4638"/><line style="stroke:#181818;stroke-width:1.0;" x1="408.5" x2="408.5" y1="721.4638" y2="734.4638"/><line style="stroke:#181818;stroke-width:1.0;" x1="367.5" x2="408.5" y1="734.4638" y2="734.4638"/><polygon fill="#181818" points="377.5,730.4638,367.5,734.4638,377.5,738.4638,373.5,734.4638" style="stroke:#181818;stroke-width:1.0;"/><text fill="#000000" font-family="sans-serif" font-size="13" lengthAdjust="spacing" textLength="270" x="373.5" y="715.6548">probe_service_did(manager, name, sid, meta)</text><polygon fill="#181818" points="1515.5,767.1698,1525.5,771.1698,1515.5,775.1698,1519.5,771.1698" style="stroke:#181818;stroke-width:1.0;"/><line style="stroke:#181818;stroke-width:1.0;" x1="366.5" x2="1521.5" y1="771.1698" y2="771.1698"/><text fill="#000000" font-family="sans-serif" font-size="13" lengthAdjust="spacing" textLength="292" x="373.5" y="765.3608">create_uds_payload(diag_comm, plugin, params)</text><polygon fill="#181818" points="377.5,798.8758,367.5,802.8758,377.5,806.8758,373.5,802.8758" style="stroke:#181818;stroke-width:1.0;"/><line style="stroke:#181818;stroke-width:1.0;stroke-dasharray:2.0,2.0;" x1="371.5" x2="1531.5" y1="802.8758" y2="802.8758"/><text fill="#000000" font-family="sans-serif" font-size="13" lengthAdjust="spacing" textLength="103" x="383.5" y="797.0668">encoded payload</text><line style="stroke:#181818;stroke-width:1.0;" x1="366.5" x2="408.5" y1="839.5818" y2="839.5818"/><line style="stroke:#181818;stroke-width:1.0;" x1="408.5" x2="408.5" y1="839.5818" y2="852.5818"/><line style="stroke:#181818;stroke-width:1.0;" x1="361.5" x2="408.5" y1="852.5818" y2="852.5818"/><polygon fill="#181818" points="371.5,848.5818,361.5,852.5818,371.5,856.5818,367.5,852.5818" style="stroke:#181818;stroke-width:1.0;"/><text fill="#000000" font-family="sans-serif" font-size="13" lengthAdjust="spacing" textLength="216" x="373.5" y="833.7728">extract_did_from_uds(payload.data)</text><line style="stroke:#000000;stroke-width:1.0;stroke-dasharray:2.0,2.0;" x1="289.5" x2="1608" y1="856.5818" y2="856.5818"/><text fill="#000000" font-family="sans-serif" font-size="11" font-weight="bold" lengthAdjust="spacing" textLength="62" x="294.5" y="868.3408">[Value DID]</text><line style="stroke:#181818;stroke-width:1.0;" x1="361.5" x2="403.5" y1="896.2697" y2="896.2697"/><line style="stroke:#181818;stroke-width:1.0;" x1="403.5" x2="403.5" y1="896.2697" y2="909.2697"/><line style="stroke:#181818;stroke-width:1.0;" x1="362.5" x2="403.5" y1="909.2697" y2="909.2697"/><polygon fill="#181818" points="372.5,905.2697,362.5,909.2697,372.5,913.2697,368.5,909.2697" style="stroke:#181818;stroke-width:1.0;"/><text fill="#000000" font-family="sans-serif" font-size="13" lengthAdjust="spacing" textLength="233" x="368.5" y="890.4607">did_matches_compu_scales(scales, did)</text><polygon fill="#181818" points="1515.5,950.9758,1525.5,954.9758,1515.5,958.9758,1519.5,954.9758" style="stroke:#181818;stroke-width:1.0;"/><line style="stroke:#181818;stroke-width:1.0;" x1="351.5" x2="1521.5" y1="954.9758" y2="954.9758"/><text fill="#000000" font-family="sans-serif" font-size="13" lengthAdjust="spacing" textLength="361" x="358.5" y="949.1668">convert_request_from_uds(diag_comm, payload, strict=true)</text><polygon fill="#181818" points="357.5,982.6818,347.5,986.6818,357.5,990.6818,353.5,986.6818" style="stroke:#181818;stroke-width:1.0;"/><line style="stroke:#181818;stroke-width:1.0;stroke-dasharray:2.0,2.0;" x1="351.5" x2="1531.5" y1="986.6818" y2="986.6818"/><text fill="#000000" font-family="sans-serif" font-size="13" lengthAdjust="spacing" textLength="123" x="363.5" y="980.8728">parsed JSON params</text><polygon fill="#181818" points="77.5,1014.3878,67.5,1018.3878,77.5,1022.3878,73.5,1018.3878" style="stroke:#181818;stroke-width:1.0;"/><line style="stroke:#181818;stroke-width:1.0;stroke-dasharray:2.0,2.0;" x1="71.5" x2="345.5" y1="1018.3878" y2="1018.3878"/><text fill="#000000" font-family="sans-serif" font-size="13" lengthAdjust="spacing" textLength="256" x="83.5" y="1012.5788">Option&lt;ResolvedService { name, params }&gt;</text><rect fill="#EEEEEE" height="3" style="stroke:#EEEEEE;stroke-width:1.0;" width="1715.5" x="0" y="1048.2408"/><line style="stroke:#000000;stroke-width:1.0;" x1="0" x2="1715.5" y1="1048.2408" y2="1048.2408"/><line style="stroke:#000000;stroke-width:1.0;" x1="0" x2="1715.5" y1="1051.2408" y2="1051.2408"/><rect fill="#EEEEEE" height="25.706" style="stroke:#000000;stroke-width:2.0;" width="172" x="771.75" y="1036.3878"/><text fill="#000000" font-family="sans-serif" font-size="13" font-weight="bold" lengthAdjust="spacing" textLength="155" x="777.75" y="1054.2848">WRITE Service Handling</text><path d="M71,1077.0938 L71,1140.0938 L473,1140.0938 L473,1087.0938 L463,1077.0938 L71,1077.0938 " fill="#FEFFDD" style="stroke:#181818;stroke-width:0.5;"/><path d="M463,1077.0938 L463,1087.0938 L473,1087.0938 L463,1077.0938 " fill="#FEFFDD" style="stroke:#181818;stroke-width:0.5;"/><text fill="#000000" font-family="sans-serif" font-size="13" lengthAdjust="spacing" textLength="179" x="77" y="1095.9908">Similar flow for WRITE services</text><text fill="#000000" font-family="sans-serif" font-size="13" lengthAdjust="spacing" textLength="366" x="77" y="1113.6968">client calls resolver.resolve(ServiceType::Write, did, uds_bytes)</text><text fill="#000000" font-family="sans-serif" font-size="13" lengthAdjust="spacing" textLength="381" x="77" y="1131.4029">which uses sid=0x2E and get_components_configurations_info()</text><rect fill="#EEEEEE" height="3" style="stroke:#EEEEEE;stroke-width:1.0;" width="1715.5" x="0" y="1167.0649"/><line style="stroke:#000000;stroke-width:1.0;" x1="0" x2="1715.5" y1="1167.0649" y2="1167.0649"/><line style="stroke:#000000;stroke-width:1.0;" x1="0" x2="1715.5" y1="1170.0649" y2="1170.0649"/><rect fill="#EEEEEE" height="25.706" style="stroke:#000000;stroke-width:2.0;" width="137" x="789.25" y="1155.2119"/><text fill="#000000" font-family="sans-serif" font-size="13" font-weight="bold" lengthAdjust="spacing" textLength="120" x="795.25" y="1173.1089">Response Building</text><polygon fill="#181818" points="1117.5,1210.6239,1127.5,1214.6239,1117.5,1218.6239,1121.5,1214.6239" style="stroke:#181818;stroke-width:1.0;"/><line style="stroke:#181818;stroke-width:1.0;" x1="66.5" x2="1123.5" y1="1214.6239" y2="1214.6239"/><text fill="#000000" font-family="sans-serif" font-size="13" lengthAdjust="spacing" textLength="322" x="73.5" y="1208.8149">build_response(service_name, sid, did, response_data)</text><line style="stroke:#181818;stroke-width:1.0;" x1="1139.5" x2="1186.5" y1="1241.3299" y2="1241.3299"/><line style="stroke:#181818;stroke-width:1.0;" x1="1186.5" x2="1186.5" y1="1241.3299" y2="1254.3299"/><line style="stroke:#181818;stroke-width:1.0;" x1="1145.5" x2="1186.5" y1="1254.3299" y2="1254.3299"/><polygon fill="#181818" points="1155.5,1250.3299,1145.5,1254.3299,1155.5,1258.3299,1151.5,1254.3299" style="stroke:#181818;stroke-width:1.0;"/><text fill="#000000" font-family="sans-serif" font-size="13" lengthAdjust="spacing" textLength="374" x="1151.5" y="1235.5209">encode_response_from_metadata(service_name, sid, did, data)</text><polygon fill="#181818" points="726.5,1287.0359,716.5,1291.0359,726.5,1295.0359,722.5,1291.0359" style="stroke:#181818;stroke-width:1.0;"/><line style="stroke:#181818;stroke-width:1.0;" x1="720.5" x2="1133.5" y1="1291.0359" y2="1291.0359"/><text fill="#000000" font-family="sans-serif" font-size="13" lengthAdjust="spacing" textLength="395" x="732.5" y="1285.2269">get_enriched_response_metadata_with_source(service_name, did)</text><polygon fill="#181818" points="1515.5,1318.7419,1525.5,1322.7419,1515.5,1326.7419,1519.5,1322.7419" style="stroke:#181818;stroke-width:1.0;"/><line style="stroke:#181818;stroke-width:1.0;" x1="715.5" x2="1521.5" y1="1322.7419" y2="1322.7419"/><text fill="#000000" font-family="sans-serif" font-size="13" lengthAdjust="spacing" textLength="303" x="722.5" y="1316.9329">get_response_parameter_metadata(service_name)</text><polygon fill="#181818" points="726.5,1350.448,716.5,1354.448,726.5,1358.448,722.5,1354.448" style="stroke:#181818;stroke-width:1.0;"/><line style="stroke:#181818;stroke-width:1.0;stroke-dasharray:2.0,2.0;" x1="720.5" x2="1531.5" y1="1354.448" y2="1354.448"/><text fill="#000000" font-family="sans-serif" font-size="13" lengthAdjust="spacing" textLength="138" x="732.5" y="1348.639">response param layout</text><path d="M623.5,1369.448 L686.5,1369.448 L686.5,1379.154 L676.5,1389.154 L623.5,1389.154 L623.5,1369.448 " fill="#EEEEEE" style="stroke:#000000;stroke-width:1.5;"/><rect fill="none" height="305.336" style="stroke:#000000;stroke-width:1.5;" width="994.5" x="623.5" y="1369.448"/><text fill="#000000" font-family="sans-serif" font-size="13" font-weight="bold" lengthAdjust="spacing" textLength="18" x="638.5" y="1384.345">alt</text><text fill="#000000" font-family="sans-serif" font-size="11" font-weight="bold" lengthAdjust="spacing" textLength="168" x="701.5" y="1383.2069">[opaque STRUCTURE detected]</text><polygon fill="#181818" points="1515.5,1408.86,1525.5,1412.86,1515.5,1416.86,1519.5,1412.86" style="stroke:#181818;stroke-width:1.0;"/><line style="stroke:#181818;stroke-width:1.0;" x1="715.5" x2="1521.5" y1="1412.86" y2="1412.86"/><text fill="#000000" font-family="sans-serif" font-size="13" lengthAdjust="spacing" textLength="172" x="722.5" y="1407.051">get_components_data_info()</text><polygon fill="#181818" points="726.5,1440.566,716.5,1444.566,726.5,1448.566,722.5,1444.566" style="stroke:#181818;stroke-width:1.0;"/><line style="stroke:#181818;stroke-width:1.0;stroke-dasharray:2.0,2.0;" x1="720.5" x2="1531.5" y1="1444.566" y2="1444.566"/><text fill="#000000" font-family="sans-serif" font-size="13" lengthAdjust="spacing" textLength="155" x="732.5" y="1438.757">READ service components</text><path d="M633.5,1459.566 L706.5,1459.566 L706.5,1469.272 L696.5,1479.272 L633.5,1479.272 L633.5,1459.566 " fill="#EEEEEE" style="stroke:#000000;stroke-width:1.5;"/><rect fill="none" height="127.8241" style="stroke:#000000;stroke-width:1.5;" width="974.5" x="633.5" y="1459.566"/><text fill="#000000" font-family="sans-serif" font-size="13" font-weight="bold" lengthAdjust="spacing" textLength="28" x="648.5" y="1474.463">loop</text><text fill="#000000" font-family="sans-serif" font-size="11" font-weight="bold" lengthAdjust="spacing" textLength="151" x="721.5" y="1473.3249">[for each sibling candidate]</text><polygon fill="#181818" points="1515.5,1498.978,1525.5,1502.978,1515.5,1506.978,1519.5,1502.978" style="stroke:#181818;stroke-width:1.0;"/><line style="stroke:#181818;stroke-width:1.0;" x1="715.5" x2="1521.5" y1="1502.978" y2="1502.978"/><text fill="#000000" font-family="sans-serif" font-size="13" lengthAdjust="spacing" textLength="281" x="722.5" y="1497.169">get_response_parameter_metadata(candidate)</text><polygon fill="#181818" points="726.5,1530.6841,716.5,1534.6841,726.5,1538.6841,722.5,1534.6841" style="stroke:#181818;stroke-width:1.0;"/><line style="stroke:#181818;stroke-width:1.0;stroke-dasharray:2.0,2.0;" x1="720.5" x2="1531.5" y1="1534.6841" y2="1534.6841"/><text fill="#000000" font-family="sans-serif" font-size="13" lengthAdjust="spacing" textLength="138" x="732.5" y="1528.8751">sibling response layout</text><line style="stroke:#181818;stroke-width:1.0;" x1="715.5" x2="757.5" y1="1566.3901" y2="1566.3901"/><line style="stroke:#181818;stroke-width:1.0;" x1="757.5" x2="757.5" y1="1566.3901" y2="1579.3901"/><line style="stroke:#181818;stroke-width:1.0;" x1="716.5" x2="757.5" y1="1579.3901" y2="1579.3901"/><polygon fill="#181818" points="726.5,1575.3901,716.5,1579.3901,726.5,1583.3901,722.5,1579.3901" style="stroke:#181818;stroke-width:1.0;"/><text fill="#000000" font-family="sans-serif" font-size="13" lengthAdjust="spacing" textLength="281" x="722.5" y="1560.5811">has_mux_case_for_did_exact(sibling_meta, did)</text><polygon fill="#181818" points="1122.5,1614.0961,1132.5,1618.0961,1122.5,1622.0961,1126.5,1618.0961" style="stroke:#181818;stroke-width:1.0;"/><line style="stroke:#181818;stroke-width:1.0;stroke-dasharray:2.0,2.0;" x1="715.5" x2="1128.5" y1="1618.0961" y2="1618.0961"/><text fill="#000000" font-family="sans-serif" font-size="13" lengthAdjust="spacing" textLength="229" x="722.5" y="1612.2871">(enriched_meta, sibling_service_name)</text><line style="stroke:#000000;stroke-width:1.0;stroke-dasharray:2.0,2.0;" x1="623.5" x2="1618" y1="1627.0961" y2="1627.0961"/><text fill="#000000" font-family="sans-serif" font-size="11" font-weight="bold" lengthAdjust="spacing" textLength="111" x="628.5" y="1638.855">[standard response]</text><polygon fill="#181818" points="1122.5,1662.784,1132.5,1666.784,1122.5,1670.784,1126.5,1666.784" style="stroke:#181818;stroke-width:1.0;"/><line style="stroke:#181818;stroke-width:1.0;stroke-dasharray:2.0,2.0;" x1="715.5" x2="1128.5" y1="1666.784" y2="1666.784"/><text fill="#000000" font-family="sans-serif" font-size="13" lengthAdjust="spacing" textLength="160" x="722.5" y="1660.975">(base_meta, service_name)</text><line style="stroke:#181818;stroke-width:1.0;" x1="1144.5" x2="1186.5" y1="1705.49" y2="1705.49"/><line style="stroke:#181818;stroke-width:1.0;" x1="1186.5" x2="1186.5" y1="1705.49" y2="1718.49"/><line style="stroke:#181818;stroke-width:1.0;" x1="1145.5" x2="1186.5" y1="1718.49" y2="1718.49"/><polygon fill="#181818" points="1155.5,1714.49,1145.5,1718.49,1155.5,1722.49,1151.5,1718.49" style="stroke:#181818;stroke-width:1.0;"/><text fill="#000000" font-family="sans-serif" font-size="13" lengthAdjust="spacing" textLength="192" x="1151.5" y="1699.681">find_mux_case_prefix(meta, did)</text><line style="stroke:#181818;stroke-width:1.0;" x1="1144.5" x2="1186.5" y1="1750.196" y2="1750.196"/><line style="stroke:#181818;stroke-width:1.0;" x1="1186.5" x2="1186.5" y1="1750.196" y2="1763.196"/><line style="stroke:#181818;stroke-width:1.0;" x1="1145.5" x2="1186.5" y1="1763.196" y2="1763.196"/><polygon fill="#181818" points="1155.5,1759.196,1145.5,1763.196,1155.5,1767.196,1151.5,1763.196" style="stroke:#181818;stroke-width:1.0;"/><text fill="#000000" font-family="sans-serif" font-size="13" lengthAdjust="spacing" textLength="233" x="1151.5" y="1744.387">filter active params by mux_case_prefix</text><line style="stroke:#181818;stroke-width:1.0;" x1="1144.5" x2="1186.5" y1="1799.902" y2="1799.902"/><line style="stroke:#181818;stroke-width:1.0;" x1="1186.5" x2="1186.5" y1="1799.902" y2="1812.902"/><line style="stroke:#181818;stroke-width:1.0;" x1="1139.5" x2="1186.5" y1="1812.902" y2="1812.902"/><polygon fill="#181818" points="1149.5,1808.902,1139.5,1812.902,1149.5,1816.902,1145.5,1812.902" style="stroke:#181818;stroke-width:1.0;"/><text fill="#000000" font-family="sans-serif" font-size="13" lengthAdjust="spacing" textLength="278" x="1151.5" y="1794.093">for each active param: encode at byte_position</text><path d="M1057.5,1822.902 L1120.5,1822.902 L1120.5,1832.6081 L1110.5,1842.6081 L1057.5,1842.6081 L1057.5,1822.902 " fill="#EEEEEE" style="stroke:#000000;stroke-width:1.5;"/><rect fill="none" height="81.3939" style="stroke:#000000;stroke-width:1.5;" width="367" x="1057.5" y="1822.902"/><text fill="#000000" font-family="sans-serif" font-size="13" font-weight="bold" lengthAdjust="spacing" textLength="18" x="1072.5" y="1837.7991">alt</text><text fill="#000000" font-family="sans-serif" font-size="11" font-weight="bold" lengthAdjust="spacing" textLength="284" x="1135.5" y="1836.661">[encode_response_from_metadata returned Some]</text><line style="stroke:#000000;stroke-width:1.0;stroke-dasharray:2.0,2.0;" x1="1057.5" x2="1424.5" y1="1843.6081" y2="1843.6081"/><text fill="#000000" font-family="sans-serif" font-size="11" font-weight="bold" lengthAdjust="spacing" textLength="189" x="1062.5" y="1855.367">[no metadata available (fallback)]</text><line style="stroke:#181818;stroke-width:1.0;" x1="1139.5" x2="1181.5" y1="1883.296" y2="1883.296"/><line style="stroke:#181818;stroke-width:1.0;" x1="1181.5" x2="1181.5" y1="1883.296" y2="1896.296"/><line style="stroke:#181818;stroke-width:1.0;" x1="1140.5" x2="1181.5" y1="1896.296" y2="1896.296"/><polygon fill="#181818" points="1150.5,1892.296,1140.5,1896.296,1150.5,1900.296,1146.5,1896.296" style="stroke:#181818;stroke-width:1.0;"/><text fill="#000000" font-family="sans-serif" font-size="13" lengthAdjust="spacing" textLength="212" x="1146.5" y="1877.487">naive encoding via value_to_bytes()</text><path d="M1057.5,1918.296 L1120.5,1918.296 L1120.5,1928.002 L1110.5,1938.002 L1057.5,1938.002 L1057.5,1918.296 " fill="#EEEEEE" style="stroke:#000000;stroke-width:1.5;"/><rect fill="none" height="133.8241" style="stroke:#000000;stroke-width:1.5;" width="648" x="1057.5" y="1918.296"/><text fill="#000000" font-family="sans-serif" font-size="13" font-weight="bold" lengthAdjust="spacing" textLength="18" x="1072.5" y="1933.193">alt</text><text fill="#000000" font-family="sans-serif" font-size="11" font-weight="bold" lengthAdjust="spacing" textLength="122" x="1135.5" y="1932.0549">[DEBUG level enabled]</text><line style="stroke:#181818;stroke-width:1.0;" x1="1139.5" x2="1186.5" y1="1956.708" y2="1956.708"/><line style="stroke:#181818;stroke-width:1.0;" x1="1186.5" x2="1186.5" y1="1956.708" y2="1969.708"/><line style="stroke:#181818;stroke-width:1.0;" x1="1145.5" x2="1186.5" y1="1969.708" y2="1969.708"/><polygon fill="#181818" points="1155.5,1965.708,1145.5,1969.708,1155.5,1973.708,1151.5,1969.708" style="stroke:#181818;stroke-width:1.0;"/><text fill="#000000" font-family="sans-serif" font-size="13" lengthAdjust="spacing" textLength="275" x="1151.5" y="1950.899">validate_response(effective_service, sid, bytes)</text><polygon fill="#181818" points="1515.5,2002.414,1525.5,2006.414,1515.5,2010.414,1519.5,2006.414" style="stroke:#181818;stroke-width:1.0;"/><line style="stroke:#181818;stroke-width:1.0;" x1="1144.5" x2="1521.5" y1="2006.414" y2="2006.414"/><text fill="#000000" font-family="sans-serif" font-size="13" lengthAdjust="spacing" textLength="309" x="1151.5" y="2000.605">convert_from_uds(diag_comm, payload, strict=true)</text><polygon fill="#181818" points="1150.5,2037.12,1140.5,2041.12,1150.5,2045.12,1146.5,2041.12" style="stroke:#181818;stroke-width:1.0;"/><line style="stroke:#181818;stroke-width:1.0;stroke-dasharray:2.0,2.0;" x1="1144.5" x2="1531.5" y1="2041.12" y2="2041.12"/><text fill="#000000" font-family="sans-serif" font-size="13" lengthAdjust="spacing" textLength="31" x="1156.5" y="2035.311">JSON</text><path d="M1542,2019.414 L1542,2046.414 L1690,2046.414 L1690,2029.414 L1680,2019.414 L1542,2019.414 " fill="#FEFFDD" style="stroke:#181818;stroke-width:0.5;"/><path d="M1680,2019.414 L1680,2029.414 L1690,2029.414 L1680,2019.414 " fill="#FEFFDD" style="stroke:#181818;stroke-width:0.5;"/><text fill="#000000" font-family="sans-serif" font-size="13" lengthAdjust="spacing" textLength="127" x="1548" y="2038.311">Round-trip validation</text><polygon fill="#181818" points="77.5,2078.826,67.5,2082.826,77.5,2086.826,73.5,2082.826" style="stroke:#181818;stroke-width:1.0;"/><line style="stroke:#181818;stroke-width:1.0;stroke-dasharray:2.0,2.0;" x1="71.5" x2="1133.5" y1="2082.826" y2="2082.826"/><text fill="#000000" font-family="sans-serif" font-size="13" lengthAdjust="spacing" textLength="206" x="83.5" y="2077.017">Result&lt;Vec&lt;u8&gt;, DiagServiceError&gt;</text><path d="M71,2095.826 L71,2441.826 L457,2441.826 L457,2105.826 L447,2095.826 L71,2095.826 " fill="#FEFFDD" style="stroke:#181818;stroke-width:0.5;"/><path d="M447,2095.826 L447,2105.826 L457,2105.826 L447,2095.826 " fill="#FEFFDD" style="stroke:#181818;stroke-width:0.5;"/><text fill="#000000" font-family="sans-serif" font-size="13" lengthAdjust="spacing" textLength="3" x="77" y="2114.7231">&#160;</text><text fill="#000000" font-family="sans-serif" font-size="13" lengthAdjust="spacing" textLength="4" x="77" y="2132.4291">-</text><text fill="#000000" font-family="sans-serif" font-size="13" font-weight="bold" lengthAdjust="spacing" textLength="159" x="84" y="2132.4291">ServiceResolver (mod.rs)</text><text fill="#000000" font-family="sans-serif" font-size="13" lengthAdjust="spacing" textLength="85" x="243" y="2132.4291">: construction,</text><text fill="#000000" font-family="sans-serif" font-size="13" lengthAdjust="spacing" textLength="216" x="83" y="2150.1351">variant activation. Sub-components:</text><text fill="#000000" font-family="sans-serif" font-size="13" lengthAdjust="spacing" textLength="167" x="83" y="2167.8411">resolver, encoder, metadata</text><text fill="#000000" font-family="sans-serif" font-size="13" lengthAdjust="spacing" textLength="4" x="77" y="2185.5471">-</text><text fill="#000000" font-family="sans-serif" font-size="13" font-weight="bold" lengthAdjust="spacing" textLength="152" x="84" y="2185.5471">DidResolver (resolve.rs)</text><text fill="#000000" font-family="sans-serif" font-size="13" lengthAdjust="spacing" textLength="153" x="236" y="2185.5471">: DID -&gt; service resolution,</text><text fill="#000000" font-family="sans-serif" font-size="13" lengthAdjust="spacing" textLength="235" x="83" y="2203.2531">candidate building, metadata matching</text><text fill="#000000" font-family="sans-serif" font-size="13" lengthAdjust="spacing" textLength="4" x="77" y="2220.9592">-</text><text fill="#000000" font-family="sans-serif" font-size="13" font-weight="bold" lengthAdjust="spacing" textLength="201" x="84" y="2220.9592">ResponseEncoder (response.rs)</text><text fill="#000000" font-family="sans-serif" font-size="13" lengthAdjust="spacing" textLength="152" x="285" y="2220.9592">: UDS response encoding,</text><text fill="#000000" font-family="sans-serif" font-size="13" lengthAdjust="spacing" textLength="203" x="83" y="2238.6652">round-trip validation (debug only)</text><text fill="#000000" font-family="sans-serif" font-size="13" lengthAdjust="spacing" textLength="4" x="77" y="2256.3712">-</text><text fill="#000000" font-family="sans-serif" font-size="13" font-weight="bold" lengthAdjust="spacing" textLength="211" x="84" y="2256.3712">MetadataProvider (metadata.rs)</text><text fill="#000000" font-family="sans-serif" font-size="13" lengthAdjust="spacing" textLength="147" x="295" y="2256.3712">: MDD metadata queries,</text><text fill="#000000" font-family="sans-serif" font-size="13" lengthAdjust="spacing" textLength="144" x="83" y="2274.0772">MUX sibling enrichment</text><text fill="#000000" font-family="sans-serif" font-size="13" lengthAdjust="spacing" textLength="4" x="77" y="2291.7832">-</text><text fill="#000000" font-family="sans-serif" font-size="13" font-weight="bold" lengthAdjust="spacing" textLength="93" x="84" y="2291.7832">uds_helpers.rs</text><text fill="#000000" font-family="sans-serif" font-size="13" lengthAdjust="spacing" textLength="130" x="177" y="2291.7832">: Pure free functions --</text><text fill="#000000" font-family="sans-serif" font-size="13" lengthAdjust="spacing" textLength="214" x="83" y="2309.4892">encoding, decoding, MUX matching</text><text fill="#000000" font-family="sans-serif" font-size="13" lengthAdjust="spacing" textLength="3" x="77" y="2327.1953">&#160;</text><text fill="#000000" font-family="sans-serif" font-size="13" font-weight="bold" lengthAdjust="spacing" textLength="67" x="77" y="2344.9013">Data flow:</text><text fill="#000000" font-family="sans-serif" font-size="13" lengthAdjust="spacing" textLength="273" x="77" y="2362.6073">Caller accesses resolver, encoder, metadata as</text><text fill="#000000" font-family="sans-serif" font-size="13" lengthAdjust="spacing" textLength="329" x="77" y="2380.3133">direct pub fields on ServiceResolver, then calls methods</text><text fill="#000000" font-family="sans-serif" font-size="13" lengthAdjust="spacing" textLength="208" x="77" y="2398.0193">on those sub-components directly.</text><text fill="#000000" font-family="sans-serif" font-size="13" lengthAdjust="spacing" textLength="314" x="77" y="2415.7253">ResponseEncoder holds MetadataProvider internally</text><text fill="#000000" font-family="sans-serif" font-size="13" lengthAdjust="spacing" textLength="276" x="77" y="2433.4314">for the cross-module enrichment dependency.</text><!--SRC=[hLXRRnf757xdLnpveG8Bd2QggWfXIucXZQkcYOoTL6ggrR0xm2Z3p7Pc5fjM_UyzSzqBYvrAVO5bcVET-tVEhc66KrXIjMSvlQLQyZrLKvZVpC7zgWoJ0hwnFqefD8Kt5UC54vlFOgRPNtJwykNLB9TSgkb6aSFLGXXrW58oOVGKbd9Vp1dPl2MYu5HTRDrtfYWfie8Lmn6yW73lGJ53myrXgUJZOQ9HUZHxuT2lPY-ikgl1WEH6AZZhG7yMJQ4p81gkEQF234gY3CjPIOH1gRQZABMJnONIi2OvAQWN_D5TjmNdh6W8AN-9WbuY_jMMUKSDAOWX7vJSiy9h2xUIf3tJbegHNeXS5b6RkzDKLxQ5hkUlOP5NxuWW6wgy-_FNWy7b9TmkNizZWfivlRmS37o8O785TUg3RyCWSdSewNHwYnaR0sPd35MXizN1K3sogM1xOcZj_m3ITIzgfZsgIxHcnUMtZwzU1M1ELfHVdbbxpqO8r8lUnaSVfy2b_5ALY4WskTpjh7LOONzML9kiL7JD7eU_UpLOrTdR6__zo_i_HWulgR41ipTiB2SjutV4v5ki-MYzTkSAsX8zCgwMNzcUiIvdELOhmmAWUhZpkNBE1pl7e5dHZ4R7mXI8tZXigCam05Wgc5ETsJBBc5XBR2Y9PTJvEvTYpJQL8hOOT3ZujG4XdCFoPZw9WO4G611arn-TpgrsIZ639Qong_705bACMgZkuAa0EplguBhgIl6rqdLaHm7eX2adufhgYIX4CrHbiPE7jLQhw0W-EjyNHeS64IaSwoihnEC6hf4FYclCbh4L7Fuu5HB4rZIhllykuqYiYl2XfPCYsnDU9IifHqR_i3teX0hDOq1M6ejbz9mg9LVjpkwBlNMpHkglwTxuvpWkCBgMTqfou98KGzlhjfXtOoXvjM5Yx6EfUnJK2UXB0NKiMq10JYTxolTq0EYZKNZSTVXQoPsrTHWGBsngHtsu7SzTBZwwi3-VNQl95JtLhgchJEU48wluhrQbKr4C1azh3qTEDEXnHgJ0dtLN99-RUV7kO_ADOhcvDCgNNIUilKsXCI4_Bz__6f8wE6wANajhEwsXRhHDuNrf2MuM_YlY8FmxbARN0FzSzKFY_FnqUtEtI0FKhHkMyUpu518FAxRP6f3hk6y0BDcESQ9WpUM3epKFqHWUkP-xc2kkusXK5xsJzvFTYuv7By33bY5PLffg28Dq0MWSV1NFOyB1MkytXEvkTxmRb768nLra6DkzpQvZY0SoN_VDc9QXcCeQrBTVGlMLbAZrb8xOKaVWDRpTgpnrKu7rjwMrwGa_Us1ccsbPgRphJsgVfC8jQkwMlUeCXm3SCnsQiC-CLszo10l3WPE3hCp9VSEE1LaIR4DOtjtUNz_TtoxmeA6veP7CZkpjNnAU7rpUGBTFnibSGpqvlTe3NhELQw4qEHFP_QVG9l6l97rlVbIUujo8y1F47otp85kYirtrY1k7hLcf7FFJHvGS1dndvYaQzc2f2OQfHBrGX3Yk7JSZj477YIgI2oTGLoJK-XXwaA8r3N_h4cytwPg9edOthDGT_xeI75Fbqq4ZnwuEq07faun5qfIDF074WEM_h9IQMJux7bf80xOddkGL39ofbC0XivIuMBgW2fdsC21xWlozmkVYuHePUaNoBwCZvXB4ckVqs7BQCm9kPygCz1pjMTQRCr-ykVy9EDrJZY8MkZW2H6c_HYQAfUirTL68bH0uC8s0jkCrO6j8_p_36Gsq4tdGqo3r54Hoa9Ke9WXQHdzibewJv2BZpMtCQhnHSJFxIFDPzSCLFgUXnM4OBfIIgZkaonCZ61LEuFoyyx0FuLb_T7xkeeE-LxcrR-pgS4yKiy_IGG7Ulu1bjPhK53Trv-Au7eSYK-Fc1c_rDjuLGFDLWTLhLspqEFAdIi_ZteZwsMSLPd6DdXv3WvhEYm9elIUmkkxdovhcOgLwFQelJp0iwAhQW1JyC0fAkkymeFKAmsfvDv_N9k8WKWptJpyextzBTEifRkSN90jiTvajvILL6f4iq8TAKLWhYX-LS8dHM1s1hOBnM4ZnogAdYE0fZBkrm2vTq_DpMxtOkuw4SEUoMz8JYGFYbaociD-Wh5P8O9GN6YFHVJKs1hEb8cnkABwLXHN5WtXfoRbLCG6I7ov2TpRpjPLMnL60cK3g58X_G1bBXwWGdu6arXEituhJHYmn72Ms4lg36j9Ezoy0]--></g></svg>
