<!--
  SPDX-License-Identifier: Apache-2.0
  SPDX-FileCopyrightText: 2026 The Contributors to Eclipse OpenSOVD (see CONTRIBUTORS)
-->
<?xml version="1.0" encoding="us-ascii" standalone="no"?><svg xmlns="http://www.w3.org/2000/svg" xmlns:xlink="http://www.w3.org/1999/xlink" contentStyleType="text/css" height="1174px" preserveAspectRatio="none" style="width:1351px;height:1174px;background:#FFFFFF;" version="1.1" viewBox="0 0 1351 1174" width="1351px" zoomAndPan="magnify"><defs/><g><text fill="#000000" font-family="sans-serif" font-size="14" font-weight="bold" lengthAdjust="spacing" textLength="223" x="556.5" y="24.9659">Service Resolver - Class Diagram</text><text fill="#808080" font-family="sans-serif" font-size="11" font-weight="bold" lengthAdjust="spacing" textLength="378" x="479" y="40.8268">proxy-core::service_resolver &#8212; MDD-driven UDS encoding / decoding</text><!--cluster proxy-core::service_resolver--><g id="cluster_proxy-core::service_resolver"><rect fill="none" height="1023.5" rx="2.5" ry="2.5" style="stroke:#000000;stroke-width:1.5;" width="952" x="14" y="59.0498"/><text fill="#000000" font-family="sans-serif" font-size="14" font-weight="bold" lengthAdjust="spacing" textLength="193" x="393.5" y="76.0157">proxy-core::service_resolver</text></g><!--cluster cda-core  <size:10>(external path dep)</size>--><g id="cluster_cda-core  &lt;size:10&gt;(external path dep)&lt;/size&gt;"><rect fill="#D3D3D3" height="465.5" rx="2.5" ry="2.5" style="stroke:#000000;stroke-width:1.5;" width="338" x="974" y="702.5498"/><text fill="#000000" font-family="sans-serif" font-size="14" font-weight="bold" lengthAdjust="spacing" textLength="59" x="1061.5" y="719.5157">cda-core</text><text fill="#000000" font-family="sans-serif" font-size="10" font-weight="bold" lengthAdjust="spacing" textLength="96" x="1128.5" y="720.6877">(external path dep)</text></g><!--cluster proxy-core  <size:10>(public API)</size>--><g id="cluster_proxy-core  &lt;size:10&gt;(public API)&lt;/size&gt;"><rect fill="#FFFFE0" height="181" rx="2.5" ry="2.5" style="stroke:#000000;stroke-width:1.5;" width="371" x="974" y="187.0498"/><text fill="#000000" font-family="sans-serif" font-size="14" font-weight="bold" lengthAdjust="spacing" textLength="75" x="1090" y="204.0157">proxy-core</text><text fill="#000000" font-family="sans-serif" font-size="10" font-weight="bold" lengthAdjust="spacing" textLength="56" x="1173" y="205.1877">(public API)</text></g><!--class ServiceResolver--><g id="elem_ServiceResolver"><rect codeLine="17" fill="#F1F1F1" height="399.2225" id="ServiceResolver" rx="2.5" ry="2.5" style="stroke:#181818;stroke-width:0.5;" width="563" x="22.5" y="89.0498"/><ellipse cx="255.25" cy="105.0498" fill="#ADD1B2" rx="11" ry="11" style="stroke:#181818;stroke-width:1.0;"/><path d="M258.2188,110.6904 Q257.6406,110.9873 257,111.1279 Q256.3594,111.2842 255.6563,111.2842 Q253.1563,111.2842 251.8281,109.6436 Q250.5156,107.9873 250.5156,104.8623 Q250.5156,101.7373 251.8281,100.0811 Q253.1563,98.4248 255.6563,98.4248 Q256.3594,98.4248 257,98.5811 Q257.6563,98.7373 258.2188,99.0342 L258.2188,101.7529 Q257.5938,101.1748 257,100.9092 Q256.4063,100.6279 255.7813,100.6279 Q254.4375,100.6279 253.75,101.7061 Q253.0625,102.7686 253.0625,104.8623 Q253.0625,106.9561 253.75,108.0342 Q254.4375,109.0967 255.7813,109.0967 Q256.4063,109.0967 257,108.8311 Q257.5938,108.5498 258.2188,107.9717 L258.2188,110.6904 Z " fill="#000000"/><text fill="#000000" font-family="sans-serif" font-size="12" lengthAdjust="spacing" textLength="89" x="275.75" y="109.7058">ServiceResolver</text><line style="stroke:#181818;stroke-width:0.5;" x1="23.5" x2="584.5" y1="121.0498" y2="121.0498"/><text fill="#000000" font-family="sans-serif" font-size="14" lengthAdjust="spacing" textLength="292" x="28.5" y="140.0157">-manager : Arc&lt;RwLock&lt;CdaEcuManager&gt;&gt;</text><text fill="#000000" font-family="sans-serif" font-size="14" lengthAdjust="spacing" textLength="126" x="28.5" y="159.0837">-ecu_name : String</text><text fill="#000000" font-family="sans-serif" font-size="14" lengthAdjust="spacing" text-decoration="underline" textLength="332" x="28.5" y="201.2195">+new(ecu_name, db, logical, tester) : Result&lt;Self&gt;</text><text fill="#000000" font-family="sans-serif" font-size="14" lengthAdjust="spacing" textLength="124" x="28.5" y="220.2874">+ecu_name() : &amp;str</text><text fill="#000000" font-family="sans-serif" font-size="14" lengthAdjust="spacing" text-decoration="underline" textLength="225" x="28.5" y="239.3553">+is_negative_response(uds) : bool</text><text fill="#000000" font-family="sans-serif" font-size="14" lengthAdjust="spacing" text-decoration="underline" textLength="182" x="28.5" y="258.4232">+get_nrc(uds) : Option&lt;u8&gt;</text><line style="stroke:#181818;stroke-width:1.0;" x1="23.5" x2="177" y1="176.7196" y2="176.7196"/><line style="stroke:#181818;stroke-width:1.0;" x1="23.5" x2="177" y1="178.7196" y2="178.7196"/><text fill="#000000" font-family="sans-serif" font-size="14" lengthAdjust="spacing" textLength="254" x="177" y="181.6516">mod.rs &#8212; construction &amp; UDS helpers</text><line style="stroke:#181818;stroke-width:1.0;" x1="431" x2="584.5" y1="176.7196" y2="176.7196"/><line style="stroke:#181818;stroke-width:1.0;" x1="431" x2="584.5" y1="178.7196" y2="178.7196"/><text fill="#000000" font-family="sans-serif" font-size="14" lengthAdjust="spacing" textLength="447" x="28.5" y="300.5591">+&#171;async&#187; resolve_read_service(did, uds) : Option&lt;ResolvedService&gt;</text><text fill="#000000" font-family="sans-serif" font-size="14" lengthAdjust="spacing" textLength="450" x="28.5" y="319.627">+&#171;async&#187; resolve_write_service(did, uds) : Option&lt;ResolvedService&gt;</text><line style="stroke:#181818;stroke-width:1.0;" x1="23.5" x2="190.5" y1="276.0592" y2="276.0592"/><line style="stroke:#181818;stroke-width:1.0;" x1="23.5" x2="190.5" y1="278.0592" y2="278.0592"/><text fill="#000000" font-family="sans-serif" font-size="14" lengthAdjust="spacing" textLength="227" x="190.5" y="280.9912">resolve.rs &#8212; DID --&gt; service name</text><line style="stroke:#181818;stroke-width:1.0;" x1="417.5" x2="584.5" y1="276.0592" y2="276.0592"/><line style="stroke:#181818;stroke-width:1.0;" x1="417.5" x2="584.5" y1="278.0592" y2="278.0592"/><text fill="#000000" font-family="sans-serif" font-size="14" lengthAdjust="spacing" textLength="435" x="28.5" y="361.7628">+&#171;async&#187; build_response(name, sid, did, data) : Result&lt;Vec&lt;u8&gt;&gt;</text><line style="stroke:#181818;stroke-width:1.0;" x1="23.5" x2="180" y1="337.2629" y2="337.2629"/><line style="stroke:#181818;stroke-width:1.0;" x1="23.5" x2="180" y1="339.2629" y2="339.2629"/><text fill="#000000" font-family="sans-serif" font-size="14" lengthAdjust="spacing" textLength="248" x="180" y="342.1949">response.rs &#8212; encode UDS response</text><line style="stroke:#181818;stroke-width:1.0;" x1="428" x2="584.5" y1="337.2629" y2="337.2629"/><line style="stroke:#181818;stroke-width:1.0;" x1="428" x2="584.5" y1="339.2629" y2="339.2629"/><text fill="#000000" font-family="sans-serif" font-size="14" lengthAdjust="spacing" textLength="484" x="28.5" y="403.8987">+&#171;async&#187; get_service_parameter_metadata(name) : Result&lt;Vec&lt;Param&gt;&gt;</text><text fill="#000000" font-family="sans-serif" font-size="14" lengthAdjust="spacing" textLength="532" x="28.5" y="422.9666">+&#171;async&#187; get_response_parameter_metadata(name) : Result&lt;Vec&lt;RespParam&gt;&gt;</text><text fill="#000000" font-family="sans-serif" font-size="14" lengthAdjust="spacing" textLength="551" x="28.5" y="442.0345">+&#171;async&#187; get_enriched_response_metadata(name, did) : Result&lt;Vec&lt;RespParam&gt;&gt;</text><text fill="#000000" font-family="sans-serif" font-size="14" lengthAdjust="spacing" textLength="439" x="28.5" y="461.1024">+&#171;async&#187; lookup_service_names_by_sid(sid) : Result&lt;Vec&lt;String&gt;&gt;</text><text fill="#000000" font-family="sans-serif" font-size="14" lengthAdjust="spacing" textLength="458" x="28.5" y="480.1703">+&#171;async&#187; get_mux_cases_for_service(name) : Result&lt;Vec&lt;MuxCase&gt;&gt;</text><line style="stroke:#181818;stroke-width:1.0;" x1="23.5" x2="171" y1="379.3988" y2="379.3988"/><line style="stroke:#181818;stroke-width:1.0;" x1="23.5" x2="171" y1="381.3988" y2="381.3988"/><text fill="#000000" font-family="sans-serif" font-size="14" lengthAdjust="spacing" textLength="266" x="171" y="384.3307">metadata.rs &#8212; MDD parameter queries</text><line style="stroke:#181818;stroke-width:1.0;" x1="437" x2="584.5" y1="379.3988" y2="379.3988"/><line style="stroke:#181818;stroke-width:1.0;" x1="437" x2="584.5" y1="381.3988" y2="381.3988"/></g><g id="elem_GMN4"><path d="M604,163.5498 L604,284.5498 L585.8213,288.5498 L604,292.5498 L604,413.26 A0,0 0 0 0 604,413.26 L958,413.26 A0,0 0 0 0 958,413.26 L958,173.5498 L948,163.5498 L604,163.5498 A0,0 0 0 0 604,163.5498 " fill="#FEFFDD" style="stroke:#181818;stroke-width:0.5;"/><path d="M948,163.5498 L948,173.5498 L958,173.5498 L948,163.5498 " fill="#FEFFDD" style="stroke:#181818;stroke-width:0.5;"/><text fill="#000000" font-family="sans-serif" font-size="11" lengthAdjust="spacing" textLength="3" x="610" y="180.3087">&#160;</text><text fill="#000000" font-family="sans-serif" font-size="11" font-weight="bold" lengthAdjust="spacing" textLength="224" x="610" y="195.2906">Service resolution algorithm (resolve.rs):</text><text fill="#000000" font-family="sans-serif" font-size="11" lengthAdjust="spacing" textLength="328" x="610" y="210.2725">1. lookup_diagcomms_by_request_prefix([SID,DID_HI,DID_LO])</text><text fill="#000000" font-family="sans-serif" font-size="11" lengthAdjust="spacing" textLength="263" x="610" y="225.2544">2. Single match  --&gt;  service name found (fast path)</text><text fill="#000000" font-family="sans-serif" font-size="11" lengthAdjust="spacing" textLength="333" x="610" y="240.2363">3. Multiple candidates  --&gt;  inspect request parameter metadata:</text><text fill="#000000" font-family="sans-serif" font-size="11" lengthAdjust="spacing" textLength="210" x="619" y="255.2182">&#8226; CodedConst   &#8212; exact DID value match</text><text fill="#000000" font-family="sans-serif" font-size="11" lengthAdjust="spacing" textLength="309" x="619" y="270.2">&#8226; PhysConst    &#8212; coded_value or create_uds_payload probe</text><text fill="#000000" font-family="sans-serif" font-size="11" lengthAdjust="spacing" textLength="299" x="619" y="285.1819">&#8226; Value        &#8212; coded_default or CompuScale range match</text><text fill="#000000" font-family="sans-serif" font-size="11" lengthAdjust="spacing" textLength="273" x="610" y="300.1638">4. No match  --&gt;  log error, return None (no fallback)</text><text fill="#000000" font-family="sans-serif" font-size="11" lengthAdjust="spacing" textLength="3" x="610" y="315.1457">&#160;</text><text fill="#000000" font-family="sans-serif" font-size="11" font-weight="bold" lengthAdjust="spacing" textLength="183" x="610" y="330.1276">Response encoding (response.rs):</text><text fill="#000000" font-family="sans-serif" font-size="11" lengthAdjust="spacing" textLength="204" x="610" y="345.1095">Walk MDD POS-RESPONSE parameters:</text><text fill="#000000" font-family="sans-serif" font-size="11" lengthAdjust="spacing" textLength="305" x="610" y="360.0914">&#8226; CODED-CONST        --&gt; fixed byte (e.g. response SID 0x62)</text><text fill="#000000" font-family="sans-serif" font-size="11" lengthAdjust="spacing" textLength="303" x="610" y="375.0733">&#8226; MatchingRequestParam --&gt; echo DID bytes from request</text><text fill="#000000" font-family="sans-serif" font-size="11" lengthAdjust="spacing" textLength="309" x="610" y="390.0551">&#8226; VALUE              --&gt; SOVD JSON value at MDD-defined offset</text><text fill="#000000" font-family="sans-serif" font-size="11" lengthAdjust="spacing" textLength="285" x="610" y="405.037">Opaque STRUCTURE types trigger MUX sibling lookup.</text></g><!--class uds_helpers--><g id="elem_uds_helpers"><rect codeLine="57" fill="#F1F1F1" height="302.5711" id="uds_helpers" rx="2.5" ry="2.5" style="stroke:#181818;stroke-width:0.5;" width="350" x="129" y="609.0498"/><ellipse cx="235.75" cy="630.3939" fill="#ADD1B2" rx="11" ry="11" style="stroke:#181818;stroke-width:1.0;"/><path d="M238.7188,636.0345 Q238.1406,636.3314 237.5,636.472 Q236.8594,636.6283 236.1563,636.6283 Q233.6563,636.6283 232.3281,634.9877 Q231.0156,633.3314 231.0156,630.2064 Q231.0156,627.0814 232.3281,625.4252 Q233.6563,623.7689 236.1563,623.7689 Q236.8594,623.7689 237.5,623.9252 Q238.1563,624.0814 238.7188,624.3783 L238.7188,627.097 Q238.0938,626.5189 237.5,626.2533 Q236.9063,625.972 236.2813,625.972 Q234.9375,625.972 234.25,627.0502 Q233.5625,628.1127 233.5625,630.2064 Q233.5625,632.3002 234.25,633.3783 Q234.9375,634.4408 236.2813,634.4408 Q236.9063,634.4408 237.5,634.1752 Q238.0938,633.8939 238.7188,633.3158 L238.7188,636.0345 Z " fill="#000000"/><text fill="#000000" font-family="sans-serif" font-size="12" font-style="italic" lengthAdjust="spacing" textLength="132" x="254.25" y="626.8779">&#171;module: free functions&#187;</text><text fill="#000000" font-family="sans-serif" font-size="12" lengthAdjust="spacing" textLength="67" x="286.75" y="643.222">uds_helpers</text><line style="stroke:#181818;stroke-width:0.5;" x1="130" x2="478" y1="651.738" y2="651.738"/><text fill="#000000" font-family="sans-serif" font-size="14" lengthAdjust="spacing" textLength="318" x="135" y="670.704">+parse_mux_coded_value(coded) : Option&lt;u64&gt;</text><text fill="#000000" font-family="sans-serif" font-size="14" lengthAdjust="spacing" textLength="338" x="135" y="689.7719">+find_mux_case_prefix(meta, did) : Option&lt;String&gt;</text><text fill="#000000" font-family="sans-serif" font-size="14" lengthAdjust="spacing" textLength="310" x="135" y="708.8398">+has_mux_case_for_did_exact(meta, did) : bool</text><text fill="#000000" font-family="sans-serif" font-size="14" lengthAdjust="spacing" textLength="288" x="135" y="750.9756">~extract_did_from_uds(data) : Option&lt;u16&gt;</text><text fill="#000000" font-family="sans-serif" font-size="14" lengthAdjust="spacing" textLength="266" x="135" y="770.0436">~diag_comm_type(sid) : DiagCommType</text><text fill="#000000" font-family="sans-serif" font-size="14" lengthAdjust="spacing" textLength="306" x="135" y="789.1115">~make_service_payload(data) : ServicePayload</text><text fill="#000000" font-family="sans-serif" font-size="14" lengthAdjust="spacing" textLength="257" x="135" y="808.1794">~encode_unsigned_be(num) : Vec&lt;u8&gt;</text><text fill="#000000" font-family="sans-serif" font-size="14" lengthAdjust="spacing" textLength="265" x="135" y="827.2473">~parse_u64_literal(value) : Option&lt;u64&gt;</text><text fill="#000000" font-family="sans-serif" font-size="14" lengthAdjust="spacing" textLength="300" x="135" y="846.3152">~find_did_param(meta, sid) : Option&lt;Param&gt;</text><text fill="#000000" font-family="sans-serif" font-size="14" lengthAdjust="spacing" textLength="312" x="135" y="865.3831">~did_matches_compu_scales(scales, did) : bool</text><text fill="#000000" font-family="sans-serif" font-size="14" lengthAdjust="spacing" textLength="279" x="135" y="884.4511">~encode_value_at(buf, pos, size, value) : ()</text><text fill="#000000" font-family="sans-serif" font-size="14" lengthAdjust="spacing" textLength="217" x="135" y="903.519">~value_to_bytes(value) : Vec&lt;u8&gt;</text><line style="stroke:#181818;stroke-width:1.0;" x1="130" x2="250" y1="726.4757" y2="726.4757"/><line style="stroke:#181818;stroke-width:1.0;" x1="130" x2="250" y1="728.4757" y2="728.4757"/><text fill="#000000" font-family="sans-serif" font-size="14" lengthAdjust="spacing" textLength="108" x="250" y="731.4077">internal helpers</text><line style="stroke:#181818;stroke-width:1.0;" x1="358" x2="478" y1="726.4757" y2="726.4757"/><line style="stroke:#181818;stroke-width:1.0;" x1="358" x2="478" y1="728.4757" y2="728.4757"/></g><g id="elem_GMN8"><path d="M179.5,1034.5498 L179.5,1074.5136 A0,0 0 0 0 179.5,1074.5136 L428.5,1074.5136 A0,0 0 0 0 428.5,1074.5136 L428.5,1044.5498 L418.5,1034.5498 L308,1034.5498 L304,912.2542 L300,1034.5498 L179.5,1034.5498 A0,0 0 0 0 179.5,1034.5498 " fill="#FEFFDD" style="stroke:#181818;stroke-width:0.5;"/><path d="M418.5,1034.5498 L418.5,1044.5498 L428.5,1044.5498 L418.5,1034.5498 " fill="#FEFFDD" style="stroke:#181818;stroke-width:0.5;"/><text fill="#000000" font-family="sans-serif" font-size="11" lengthAdjust="spacing" textLength="208" x="185.5" y="1051.3087">Top 3 are pub re-exported from mod.rs</text><text fill="#000000" font-family="sans-serif" font-size="11" lengthAdjust="spacing" textLength="228" x="185.5" y="1066.2906">and used by proxy-sovd for MUX matching.</text></g><!--class EcuManagerTrait--><g id="elem_EcuManagerTrait"><rect codeLine="87" fill="#F1F1F1" height="211.2316" id="EcuManagerTrait" rx="2.5" ry="2.5" style="stroke:#181818;stroke-width:0.5;" width="321" x="982.5" y="949.0498"/><ellipse cx="1092.75" cy="970.3939" fill="#B4A7E5" rx="11" ry="11" style="stroke:#181818;stroke-width:1.0;"/><path d="M1088.6719,966.1595 L1088.6719,964.0033 L1096.0625,964.0033 L1096.0625,966.1595 L1093.5938,966.1595 L1093.5938,974.2377 L1096.0625,974.2377 L1096.0625,976.3939 L1088.6719,976.3939 L1088.6719,974.2377 L1091.1406,974.2377 L1091.1406,966.1595 L1088.6719,966.1595 Z " fill="#000000"/><text fill="#000000" font-family="sans-serif" font-size="12" font-style="italic" lengthAdjust="spacing" textLength="87" x="1115.75" y="966.8779">&#171;cda-interfaces&#187;</text><text fill="#000000" font-family="sans-serif" font-size="12" font-style="italic" lengthAdjust="spacing" textLength="92" x="1113.25" y="983.222">EcuManagerTrait</text><line style="stroke:#181818;stroke-width:0.5;" x1="983.5" x2="1302.5" y1="991.738" y2="991.738"/><line style="stroke:#181818;stroke-width:0.5;" x1="983.5" x2="1302.5" y1="999.738" y2="999.738"/><text fill="#000000" font-family="sans-serif" font-size="14" lengthAdjust="spacing" textLength="309" x="988.5" y="1018.704">+lookup_diagcomms_by_request_prefix(prefix)</text><text fill="#000000" font-family="sans-serif" font-size="14" lengthAdjust="spacing" textLength="290" x="988.5" y="1037.7719">+get_request_parameter_metadata(service)</text><text fill="#000000" font-family="sans-serif" font-size="14" lengthAdjust="spacing" textLength="300" x="988.5" y="1056.8398">+get_response_parameter_metadata(service)</text><text fill="#000000" font-family="sans-serif" font-size="14" lengthAdjust="spacing" textLength="242" x="988.5" y="1075.9077">+get_components_data_info(service)</text><text fill="#000000" font-family="sans-serif" font-size="14" lengthAdjust="spacing" textLength="254" x="988.5" y="1094.9756">+create_uds_payload(service, params)</text><text fill="#000000" font-family="sans-serif" font-size="14" lengthAdjust="spacing" textLength="226" x="988.5" y="1114.0436">+convert_from_uds(service, bytes)</text><text fill="#000000" font-family="sans-serif" font-size="14" lengthAdjust="spacing" textLength="284" x="988.5" y="1133.1115">+convert_request_from_uds(service, bytes)</text><text fill="#000000" font-family="sans-serif" font-size="14" lengthAdjust="spacing" textLength="111" x="988.5" y="1152.1794">+detect_variant()</text></g><!--class CdaEcuManager--><g id="elem_CdaEcuManager"><rect codeLine="102" fill="#F1F1F1" height="55.9641" id="CdaEcuManager" rx="2.5" ry="2.5" style="stroke:#181818;stroke-width:0.5;" width="170" x="1020" y="732.5498"/><ellipse cx="1035" cy="752.5319" fill="#ADD1B2" rx="11" ry="11" style="stroke:#181818;stroke-width:1.0;"/><path d="M1037.9688,758.1725 Q1037.3906,758.4694 1036.75,758.61 Q1036.1094,758.7662 1035.4063,758.7662 Q1032.9063,758.7662 1031.5781,757.1256 Q1030.2656,755.4694 1030.2656,752.3444 Q1030.2656,749.2194 1031.5781,747.5631 Q1032.9063,745.9069 1035.4063,745.9069 Q1036.1094,745.9069 1036.75,746.0631 Q1037.4063,746.2194 1037.9688,746.5162 L1037.9688,749.235 Q1037.3438,748.6569 1036.75,748.3912 Q1036.1563,748.11 1035.5313,748.11 Q1034.1875,748.11 1033.5,749.1881 Q1032.8125,750.2506 1032.8125,752.3444 Q1032.8125,754.4381 1033.5,755.5162 Q1034.1875,756.5787 1035.5313,756.5787 Q1036.1563,756.5787 1036.75,756.3131 Q1037.3438,756.0319 1037.9688,755.4537 L1037.9688,758.1725 Z " fill="#000000"/><text fill="#000000" font-family="sans-serif" font-size="12" lengthAdjust="spacing" textLength="93" x="1071.5" y="750.3779">CdaEcuManager</text><text fill="#000000" font-family="sans-serif" font-size="10" lengthAdjust="spacing" textLength="138" x="1049" y="764.5839">&lt;DefaultSecurityPluginData&gt;</text><line style="stroke:#181818;stroke-width:0.5;" x1="1021" x2="1189" y1="772.5139" y2="772.5139"/><line style="stroke:#181818;stroke-width:0.5;" x1="1021" x2="1189" y1="780.5139" y2="780.5139"/></g><!--class Config--><g id="elem_Config"><rect codeLine="116" fill="#F1F1F1" height="143.3396" id="Config" rx="2.5" ry="2.5" style="stroke:#181818;stroke-width:0.5;" width="213" x="1123.5" y="217.0498"/><ellipse cx="1207.75" cy="233.0498" fill="#ADD1B2" rx="11" ry="11" style="stroke:#181818;stroke-width:1.0;"/><path d="M1210.7188,238.6904 Q1210.1406,238.9873 1209.5,239.1279 Q1208.8594,239.2842 1208.1563,239.2842 Q1205.6563,239.2842 1204.3281,237.6436 Q1203.0156,235.9873 1203.0156,232.8623 Q1203.0156,229.7373 1204.3281,228.0811 Q1205.6563,226.4248 1208.1563,226.4248 Q1208.8594,226.4248 1209.5,226.5811 Q1210.1563,226.7373 1210.7188,227.0342 L1210.7188,229.7529 Q1210.0938,229.1748 1209.5,228.9092 Q1208.9063,228.6279 1208.2813,228.6279 Q1206.9375,228.6279 1206.25,229.7061 Q1205.5625,230.7686 1205.5625,232.8623 Q1205.5625,234.9561 1206.25,236.0342 Q1206.9375,237.0967 1208.2813,237.0967 Q1208.9063,237.0967 1209.5,236.8311 Q1210.0938,236.5498 1210.7188,235.9717 L1210.7188,238.6904 Z " fill="#000000"/><text fill="#000000" font-family="sans-serif" font-size="12" lengthAdjust="spacing" textLength="36" x="1228.25" y="237.7058">Config</text><line style="stroke:#181818;stroke-width:0.5;" x1="1124.5" x2="1335.5" y1="249.0498" y2="249.0498"/><text fill="#000000" font-family="sans-serif" font-size="14" lengthAdjust="spacing" textLength="149" x="1129.5" y="268.0157">+server : ServerConfig</text><text fill="#000000" font-family="sans-serif" font-size="14" lengthAdjust="spacing" textLength="135" x="1129.5" y="287.0837">+sovd   : SovdConfig</text><text fill="#000000" font-family="sans-serif" font-size="14" lengthAdjust="spacing" textLength="124" x="1129.5" y="306.1516">+ecu    : EcuConfig</text><text fill="#000000" font-family="sans-serif" font-size="14" lengthAdjust="spacing" textLength="171" x="1129.5" y="325.2195">+logging : LoggingConfig</text><line style="stroke:#181818;stroke-width:1.0;" x1="1124.5" x2="1335.5" y1="333.3215" y2="333.3215"/><text fill="#000000" font-family="sans-serif" font-size="14" lengthAdjust="spacing" text-decoration="underline" textLength="201" x="1129.5" y="352.2874">+from_file(path) : Result&lt;Self&gt;</text></g><!--class ResolvedService--><g id="elem_ResolvedService"><rect codeLine="125" fill="#F1F1F1" height="96.8241" id="ResolvedService" rx="2.5" ry="2.5" style="stroke:#181818;stroke-width:0.5;" width="123" x="982.5" y="240.0498"/><ellipse cx="997.5" cy="261.3939" fill="#ADD1B2" rx="11" ry="11" style="stroke:#181818;stroke-width:1.0;"/><path d="M1000.4688,267.0345 Q999.8906,267.3314 999.25,267.472 Q998.6094,267.6283 997.9063,267.6283 Q995.4063,267.6283 994.0781,265.9877 Q992.7656,264.3314 992.7656,261.2064 Q992.7656,258.0814 994.0781,256.4252 Q995.4063,254.7689 997.9063,254.7689 Q998.6094,254.7689 999.25,254.9252 Q999.9063,255.0814 1000.4688,255.3783 L1000.4688,258.097 Q999.8438,257.5189 999.25,257.2533 Q998.6563,256.972 998.0313,256.972 Q996.6875,256.972 996,258.0502 Q995.3125,259.1127 995.3125,261.2064 Q995.3125,263.3002 996,264.3783 Q996.6875,265.4408 998.0313,265.4408 Q998.6563,265.4408 999.25,265.1752 Q999.8438,264.8939 1000.4688,264.3158 L1000.4688,267.0345 Z " fill="#000000"/><text fill="#000000" font-family="sans-serif" font-size="12" font-style="italic" lengthAdjust="spacing" textLength="42" x="1036" y="257.8779">&#171;struct&#187;</text><text fill="#000000" font-family="sans-serif" font-size="12" lengthAdjust="spacing" textLength="91" x="1011.5" y="274.222">ResolvedService</text><line style="stroke:#181818;stroke-width:0.5;" x1="983.5" x2="1104.5" y1="282.738" y2="282.738"/><text fill="#000000" font-family="sans-serif" font-size="14" lengthAdjust="spacing" textLength="99" x="988.5" y="301.704">+name : String</text><text fill="#000000" font-family="sans-serif" font-size="14" lengthAdjust="spacing" textLength="101" x="988.5" y="320.7719">+params : Map</text><line style="stroke:#181818;stroke-width:0.5;" x1="983.5" x2="1104.5" y1="328.8739" y2="328.8739"/></g><polygon fill="#181818" points="304,609.0405,308,600.0405,304,604.0405,300,600.0405,304,609.0405" style="stroke:#181818;stroke-width:1.0;"/><path d="M304,488.1909 C304,528.6522 304,564.5872 304,603.0405 " fill="none" style="stroke:#181818;stroke-width:1.0;stroke-dasharray:7.0,7.0;"/><text fill="#000000" font-family="sans-serif" font-size="13" lengthAdjust="spacing" textLength="27" x="305" y="553.9468">uses</text><polygon fill="none" points="1129.3951,949.0066,1133.022,930.3828,1121.1224,931.9314,1129.3951,949.0066" style="stroke:#181818;stroke-width:1.0;"/><path d="M1108.5408,788.7582 C1113.276,825.1443 1119.6169,873.8688 1127.0722,931.1571 " fill="none" style="stroke:#181818;stroke-width:1.0;stroke-dasharray:7.0,7.0;"/><polygon fill="#181818" points="585.5127,483.3204,589.0547,489.6017,596.2151,488.748,592.6731,482.4668,585.5127,483.3204" style="stroke:#181818;stroke-width:1.0;"/><polygon fill="#181818" points="1087.4899,732.4842,1085.6927,722.8007,1084.6595,728.3624,1079.0978,727.3292,1087.4899,732.4842" style="stroke:#181818;stroke-width:1.0;"/><path d="M596.2151,488.748 C753.4968,565.7694 823.1176,513.6801 970,609.0498 C1020.7821,642.0223 1061.027,693.9467 1084.0935,727.538 " fill="none" style="stroke:#181818;stroke-width:1.0;"/><text fill="#000000" font-family="sans-serif" font-size="13" lengthAdjust="spacing" textLength="134" x="970.5" y="519.9468">owns via Arc&lt;RwLock&gt;</text><text fill="#000000" font-family="sans-serif" font-size="13" lengthAdjust="spacing" textLength="118" x="978.5" y="537.6528">(shared with callers)</text><path d="M942,546.4618 L942,585.4618 L1133,585.4618 L1133,556.4618 L1123,546.4618 L942,546.4618 " fill="#FEFFDD" style="stroke:#181818;stroke-width:0.5;"/><path d="M1123,546.4618 L1123,556.4618 L1133,556.4618 L1123,546.4618 " fill="#FEFFDD" style="stroke:#181818;stroke-width:0.5;"/><text fill="#000000" font-family="sans-serif" font-size="11" lengthAdjust="spacing" textLength="170" x="948" y="563.2207">Async RwLock allows concurrent</text><text fill="#000000" font-family="sans-serif" font-size="11" lengthAdjust="spacing" textLength="159" x="948" y="578.2026">read access across Tokio tasks.</text><!--SRC=[tLdzRkF64VzVJp6z0YcLi-Jp9JW4Wew0ORcD2_jiMFObHLCGAt8b4IQvxExIjf9US0-H9-YZtPFqDyjlIRvB-ryj61RDdPdT-VhDpFeFkHQhL50YDggmP59fHIO60nlRHD9Swliub7GjZKhkfQOHdIJ269h5OgL5-bCsDV7FSd9qv4z3bIWzmTkDdslrk1c5Iil9n9GY0bsB-FJnDxgOpKQHZkzbHhUpESaiL56ShUYG8ba-JW-TF7zwo1lu0tCNPxd0bXJo0OwjrV6YiF8iLDaS5FIgGvABy4wivDnke8EM8LHQ9R93a2ah_wmowpYFZhQbjqkl1uC_qQVVFlw__q2Bppa5ovUP96Dr4LhoAhVNNX_ImrePIN6Q9xH8L7XdI6YGvqbiIOHQ6GC9IrLeClY5W5d6YJHues5-4Ob53ChDcAY8JB2MIIwreHXIo4YskvNWJrLKm5zgIKij9NcPoaO8nxMAXhGiij36AZFZP-AFAaJfnUVSye9-6Gm87nULjEKMB5Br6L6Ah5tXtOIETJYzVZY7bwOdaJWDYujooVSxv38iWaoa4lHpP5AsQjRUlcL7ZE4VJbHaLnaKi3rzvPArTj_RjmtFI_h5M67Zy0Dbyi6hXHzGj3YWHAtYK2G7PAMn74mJXfCYiTEvJ9P-HqZDvp7DLzXttmQn2JAvmlEzirEE0qeFOSKy2wMIVJmhQODCXpNPPSxgJ8ll_AxMbT5hpMTdCngDVAfyGivQFPsdKs4sMUZxDMl0iHvK35uKHmVKtx7oN5Gvql-ii0STM_a_IIkLSPQfjN48Avt_wgMdb5aKSHArfYqTQNXxTuP8MD7nuNiPiY5xctCDOR9wSw0zENILy3_ziv0wbkQfxTbNTHuqJ44jqXrdQ_ihflBz9wNLglnESNZCloHIPZeErx8rKr-YCzL_AJPHwgx86zLPZ0aMcm2MzyoEj39fFtF2j7WCGc4W0o3SHD4UTI-AnnFGLQ8-b7Z3zP5ql5fRXkCjt1aqcquNVjqXkAWj74o8PAKGk-kKl3QdXfFfuQ8zxj6uLZX29n6gD7NAQedeC3R8jLp6ZzxVvsUp0oHYyFsP-pg__CUm4V5wJFEOwpgmpuPhSjdQJrTKf2mYRocCHG3QTSlypPWkO84u1tieChWBDSXKCkBCv6WQg3fD9tPhBqyQGVXy-lXlEa5sHISCbku54kvHG0A3oBr8YkgCsrnNwusfcIguXPYWv43j304em00kchdO94f4NCKNSblEUyVGlAZbH78fe2HBEb5fNim1m_0Kcg7jytmxfdUgPqUWDacjbJw06MoXCn1ahYZJKYJ90kLhs0k4wnfMccREwu3Gblj_4CcTWuMho_de-dH-TVbkVjhQsRJsTSQzd9tEHYUWkMag6Cw8294HBJO8LK-EL-CMsH0szEhnpUjXJym5guU3NPTkTSde1CbmhPohM1Qw5gtIslSz0U-FpszFgVTXzldb-ndzTNxvhdAri6L_Yn3ES42rN1hP2hhC1IJJ_ERwzkJczlgKx2R7fiZd5TVlYziV0RQBX0rOPiZOiKe4CcTbjn_eDbFJQTa-JShcgUcN00Tjcr2tJfGN2sWuae-vqjQGLnXdoQf7DEeUU5CrAYt0m3qCT0miRPXwxhbRLTzysqKbs21gmAZEQqwZ1YChlWhHEgnhOLfEHZ4m12wl-W9wLH_b9yuGGfb8zdKglo8nhOO89umzpTdbrKMjrk7eZTzXOOWA6AC2zbMDnZm28QtI6xph4AVYJdOAcClQHdw5bbVbw-wfN7qEYip4AmHDi01M5ocpL0MsGrlw0NOEq5HBBHBFUU8f7_nQ-e3rTGbM6S_qh5zMffxES1id32f8oE0H64OFuvLV-utVwE4E50ZhBOhb0UNAy7u_eous9_M67QwItAh09M2hJbVtRcLQA6kHeoXDdHHevDsedBvn0qelp17XBhFBxhQX1lZJRlYxqOLpCQr0OryMRlVZux7Voya92pQ33yzdXZoP7GDh7wlyYcGEWy3bcxBeHCBDCPZY-T6buLA4qWoVsypMQ4hLzSShlxKADnficc5rTV62_dZEdTHVjDZKyrnZ6shdinijC4rFfttRRUCtxDnfjV1d1p1_HqTLVWqxJ6M7N17jDiWLaWrtpr2MMZSjSB7g7-LBVVUEs9A5aGPjHcPDm6H1d2tLKqVOSscqTOZTzgcMTL3s6gQxFqPT9B5jYq93wr1f7sbjjo-ob2U-5peMcKMFciXmZ_yYs0YLgIAh4F93j-A_w4tqpUtRAtywAtkzEMPezDwRgwHOnTaCDlIRC1I6Ukozm3g7TGp0q7LbV7j37XUuJ1bCq2ndWIeyPBJiCF65a4pPNJjnpFZ9q-OK3HABLBaPT_NfdsGy_fU_BU8vuMPxoSCrAOb3EhuwSvShHRfJUWwhFo8Lv-1bDtmFkoUmatMsrJ9LcFjTJA4V5mlZMXeEg4nAj6FqWF6Bk5zd3ptZAxCk0BU6tKRUlyaaKG_zkpICNSjurKc1bsvqT3TeS_TGKdJNsJd4wtZOMKNYaLj56EyiOffQCJvDa6VkQOjYDDftRULWXNFHSyFhlekp7ZfiNGYXbfHtTxqQyfBst_kzh20HAnSYhuG_enIybebm4z4wpiqpqMgx0VsQnz4-iav8FMI6xcFHkHZsVyeyiqQ7N245MdgW2-hLmBNNm17CdtSk1exvJebADXASHuPn2rL60_ST2TzwaWZHh9Zgdm5emUzYHLQOEw1-qpJ_1m00]--></g></svg>
